# xmcd
#
# Track frame offsets:
#	183
#	19483
#	37498
#	56390
#	76708
#	97645
#	116720
#	135870
#	160543
#	184500
#
# Disc length: 2597 seconds
#
# Revision: 885636536
# Processed by: cddbd v1.5.2PL0 Copyright (c) Steve Scherf et al.
# Submitted via: EZCDAudioConverter 8.0.2.1
#
DISCID=6e0a230a
DTITLE=王杰 - 一场游戏一场梦[飞碟T111-02红字首版]
DYEAR=1987
DGENRE=World Pop
TTITLE0=一场游戏一场梦
TTITLE1=只因我爱你
TTITLE2=别再说想我
TTITLE3=惦记这一些
TTITLE4=心里的呼喊
TTITLE5=安妮
TTITLE6=风和雾
TTITLE7=故事的角色
TTITLE8=说声珍重
TTITLE9=一场游戏一场梦Ⅱ
EXTD=
EXTT0=
EXTT1=
EXTT2=
EXTT3=
EXTT4=
EXTT5=
EXTT6=
EXTT7=
EXTT8=
EXTT9=
PLAYORDER=
